<svg width="32" height="32" viewBox="0 0 32 32" fill="none" xmlns="http://www.w3.org/2000/svg">
<g clip-path="url(#clip0_321_109)">
<path d="M12.3283 20.6017L11.8373 23.5178C11.7704 23.9165 11.934 24.3182 12.2604 24.5561C12.5873 24.7936 13.0213 24.8254 13.3785 24.6382L16.0002 23.2696L18.622 24.6384C18.7771 24.719 18.9471 24.7595 19.1153 24.7595C19.3355 24.7595 19.5553 24.6905 19.7406 24.5564C20.0673 24.3185 20.2313 23.9167 20.1639 23.5181L19.6735 20.6019L21.7845 18.5311C22.0732 18.2483 22.176 17.8263 22.0522 17.4423C21.9278 17.0585 21.595 16.7775 21.1956 16.7185L18.2703 16.2847L16.9527 13.6365C16.774 13.275 16.4038 13.0461 16 13.0461C15.597 13.0461 15.227 13.275 15.0468 13.6365L13.7305 16.2847L10.8051 16.7182C10.4049 16.7772 10.0737 17.0582 9.94908 17.442C9.82448 17.8261 9.92703 18.2486 10.2162 18.5309L12.3283 20.6017Z" fill="#D72B32"/>
<path d="M28.5726 3.40195H25.223V1.54394C25.223 0.69121 24.5318 0 23.6788 0H23.4339C22.5812 0 21.8903 0.69121 21.8903 1.54394V3.40195H10.0717V1.54394C10.0717 0.69121 9.38054 0 8.52806 0H8.28296C7.43023 0 6.73927 0.69121 6.73927 1.54394V3.40195H3.42859C1.67673 3.40195 0.250977 4.82719 0.250977 6.57957V28.8226C0.250977 30.574 1.67673 32.0003 3.42859 32.0003H28.5729C30.3245 32.0003 31.7505 30.5742 31.7505 28.8226V6.57957C31.7503 4.82719 30.3243 3.40195 28.5726 3.40195ZM28.1581 28.4081H3.84317V11.0932H28.1581V28.4081Z" fill="#D72B32"/>
</g>
<defs>
<clipPath id="clip0_321_109">
<rect width="32" height="32" fill="white"/>
</clipPath>
</defs>
</svg>
