<svg width="28" height="28" viewBox="0 0 28 28" fill="none" xmlns="http://www.w3.org/2000/svg">
<g clip-path="url(#clip0_301_419)">
<path fill-rule="evenodd" clip-rule="evenodd" d="M10.6648 6.5625C8.32883 6.5625 6.05374 9.2157 5.07812 10.6594C5.84311 11.7783 8.12375 14.7656 10.6648 14.7656C13.0008 14.7656 15.2758 12.1124 16.2515 10.669C15.4865 9.5498 13.2058 6.5625 10.6648 6.5625ZM10.6648 13.125C9.30786 13.125 8.20386 12.021 8.20386 10.6641C8.20386 9.30713 9.30786 8.20312 10.6648 8.20312C12.0217 8.20312 13.1257 9.30713 13.1257 10.6641C13.1257 12.021 12.0217 13.125 10.6648 13.125Z" fill="#E9E9E9"/>
<path fill-rule="evenodd" clip-rule="evenodd" d="M21.7552 18.2752C21.4317 17.9501 20.8846 17.9518 20.5655 18.3064L20.0449 18.8849L18.7535 17.5936C20.3542 15.7276 21.3281 13.3094 21.3281 10.6641C21.3281 4.78409 16.544 0 10.6641 0C4.78409 0 0 4.78409 0 10.6641C0 16.544 4.78409 21.3281 10.6641 21.3281C13.3094 21.3281 15.7276 20.3542 17.5936 18.7535L18.9458 20.1058L18.3673 20.7481C18.0757 21.0726 18.0885 21.5685 18.397 21.8769L23.8004 27.2786C24.7619 28.2401 26.3179 28.241 27.2803 27.2786C28.2399 26.3188 28.2399 24.7583 27.2803 23.7987L21.7552 18.2752ZM17.9307 11.0847C17.801 11.3017 14.7071 16.4062 10.6641 16.4062C6.62103 16.4062 3.52713 11.3017 3.39746 11.0847C3.2428 10.826 3.2428 10.5023 3.39746 10.2434C3.52713 10.0264 6.62103 4.92188 10.6641 4.92188C14.7071 4.92188 17.801 10.0264 17.9307 10.2434C18.0853 10.5023 18.0853 10.826 17.9307 11.0847Z" fill="#E9E9E9"/>
<path fill-rule="evenodd" clip-rule="evenodd" d="M10.6641 9.84375C10.2114 9.84375 9.84375 10.2114 9.84375 10.6641C9.84375 11.1167 10.2114 11.4844 10.6641 11.4844C11.1167 11.4844 11.4844 11.1167 11.4844 10.6641C11.4844 10.2114 11.1167 9.84375 10.6641 9.84375Z" fill="#E9E9E9"/>
</g>
<defs>
<clipPath id="clip0_301_419">
<rect width="28" height="28" fill="white"/>
</clipPath>
</defs>
</svg>
