<svg width="65" height="108" viewBox="0 0 65 108" fill="none" xmlns="http://www.w3.org/2000/svg">
<g opacity="0.25">
<path d="M65 10.982L54.0143 0L43.0286 10.982L54.0143 21.9639L65 10.982Z" fill="#E9E9E9"/>
<path d="M65 53.9963L54.0143 43.0143L43.0286 53.9963L54.0143 64.9782L65 53.9963Z" fill="#E9E9E9"/>
<path d="M64.9995 97.018L54.0139 86.0361L43.0282 97.018L54.0139 108L64.9995 97.018Z" fill="#E9E9E9"/>
<path d="M43.3335 32.6414L32.3478 21.6594L21.3621 32.6414L32.3478 43.6233L43.3335 32.6414Z" fill="#E9E9E9"/>
<path d="M43.3335 75.6557L32.3478 64.6737L21.3621 75.6557L32.3478 86.6377L43.3335 75.6557Z" fill="#E9E9E9"/>
<path d="M21.9714 11.2865L10.9857 0.304521L-1.19544e-06 11.2865L10.9857 22.2684L21.9714 11.2865Z" fill="#E9E9E9"/>
<path d="M21.9714 54.3008L10.9857 43.3188L-1.19544e-06 54.3008L10.9857 65.2827L21.9714 54.3008Z" fill="#E9E9E9"/>
</g>
</svg>
