<svg width="34" height="180" viewBox="0 0 34 180" fill="none" xmlns="http://www.w3.org/2000/svg">
<path d="M26.4 0.800049L16.6 10.6L7 0.800049L0 7.80005L9.8 17.4L0 27.2L7 34.2L16.6 24.4L26.4 34.2L33.4 27.2L23.6 17.4L33.4 7.80005L26.4 0.800049Z" fill="#D72B32"/>
<path d="M26.4 49.4L16.6 59.2001L7 49.4L0 56.4L9.8 66L0 75.8L7 82.8L16.6 73L26.4 82.8L33.4 75.8L23.6 66L33.4 56.4L26.4 49.4Z" fill="#D72B32"/>
<path d="M26.4 98L16.6 107.8L7 98L0 105L9.8 114.6L0 124.4L7 131.4L16.6 121.6L26.4 131.4L33.4 124.4L23.6 114.6L33.4 105L26.4 98Z" fill="#D72B32"/>
<path d="M26.4 146.6L16.6 156.4L7 146.6L0 153.6L9.8 163.4L0 173L7 180L16.6 170.2L26.4 180L33.4 173L23.6 163.4L33.4 153.6L26.4 146.6Z" fill="#D72B32"/>
</svg>
