<svg width="65" height="108" viewBox="0 0 65 108" fill="none" xmlns="http://www.w3.org/2000/svg">
<g opacity="0.25">
<path d="M0 10.982L10.9857 0L21.9714 10.982L10.9857 21.9639L0 10.982Z" fill="#E9E9E9"/>
<path d="M0 53.9963L10.9857 43.0143L21.9714 53.9963L10.9857 64.9782L0 53.9963Z" fill="#E9E9E9"/>
<path d="M0.000451899 97.018L10.9861 86.0361L21.9718 97.018L10.9861 108L0.000451899 97.018Z" fill="#E9E9E9"/>
<path d="M21.6665 32.6414L32.6522 21.6594L43.6379 32.6414L32.6522 43.6233L21.6665 32.6414Z" fill="#E9E9E9"/>
<path d="M21.6665 75.6557L32.6522 64.6737L43.6379 75.6557L32.6522 86.6377L21.6665 75.6557Z" fill="#E9E9E9"/>
<path d="M43.0286 11.2865L54.0143 0.304521L65 11.2865L54.0143 22.2684L43.0286 11.2865Z" fill="#E9E9E9"/>
<path d="M43.0286 54.3008L54.0143 43.3188L65 54.3008L54.0143 65.2827L43.0286 54.3008Z" fill="#E9E9E9"/>
</g>
</svg>
