<svg width="72" height="172" viewBox="0 0 72 172" fill="none" xmlns="http://www.w3.org/2000/svg">
<g opacity="0.25">
<path d="M66 12C62.6863 12 60 9.31371 60 6C60 2.68629 62.6863 1.7625e-06 66 1.90735e-06C69.3137 2.0522e-06 72 2.6863 72 6C72 9.31371 69.3137 12 66 12Z" fill="#E9E9E9"/>
<path d="M66 32C62.6863 32 60 29.3137 60 26C60 22.6863 62.6863 20 66 20C69.3137 20 72 22.6863 72 26C72 29.3137 69.3137 32 66 32Z" fill="#E9E9E9"/>
<path d="M66 52C62.6863 52 60 49.3137 60 46C60 42.6863 62.6863 40 66 40C69.3137 40 72 42.6863 72 46C72 49.3137 69.3137 52 66 52Z" fill="#E9E9E9"/>
<path d="M66 72C62.6863 72 60 69.3137 60 66C60 62.6863 62.6863 60 66 60C69.3137 60 72 62.6863 72 66C72 69.3137 69.3137 72 66 72Z" fill="#E9E9E9"/>
<path d="M66 92C62.6863 92 60 89.3137 60 86C60 82.6863 62.6863 80 66 80C69.3137 80 72 82.6863 72 86C72 89.3137 69.3137 92 66 92Z" fill="#E9E9E9"/>
<path d="M66 112C62.6863 112 60 109.314 60 106C60 102.686 62.6863 100 66 100C69.3137 100 72 102.686 72 106C72 109.314 69.3137 112 66 112Z" fill="#E9E9E9"/>
<path d="M66 132C62.6863 132 60 129.314 60 126C60 122.686 62.6863 120 66 120C69.3137 120 72 122.686 72 126C72 129.314 69.3137 132 66 132Z" fill="#E9E9E9"/>
<path d="M66 152C62.6863 152 60 149.314 60 146C60 142.686 62.6863 140 66 140C69.3137 140 72 142.686 72 146C72 149.314 69.3137 152 66 152Z" fill="#E9E9E9"/>
<path d="M66 172C62.6863 172 60 169.314 60 166C60 162.686 62.6863 160 66 160C69.3137 160 72 162.686 72 166C72 169.314 69.3137 172 66 172Z" fill="#E9E9E9"/>
<path d="M46 12C42.6863 12 40 9.31371 40 6C40 2.68629 42.6863 1.7625e-06 46 1.90735e-06C49.3137 2.0522e-06 52 2.68629 52 6C52 9.31371 49.3137 12 46 12Z" fill="#E9E9E9"/>
<path d="M46 32C42.6863 32 40 29.3137 40 26C40 22.6863 42.6863 20 46 20C49.3137 20 52 22.6863 52 26C52 29.3137 49.3137 32 46 32Z" fill="#E9E9E9"/>
<path d="M46 52C42.6863 52 40 49.3137 40 46C40 42.6863 42.6863 40 46 40C49.3137 40 52 42.6863 52 46C52 49.3137 49.3137 52 46 52Z" fill="#E9E9E9"/>
<path d="M46 72C42.6863 72 40 69.3137 40 66C40 62.6863 42.6863 60 46 60C49.3137 60 52 62.6863 52 66C52 69.3137 49.3137 72 46 72Z" fill="#E9E9E9"/>
<path d="M46 92C42.6863 92 40 89.3137 40 86C40 82.6863 42.6863 80 46 80C49.3137 80 52 82.6863 52 86C52 89.3137 49.3137 92 46 92Z" fill="#E9E9E9"/>
<path d="M46 112C42.6863 112 40 109.314 40 106C40 102.686 42.6863 100 46 100C49.3137 100 52 102.686 52 106C52 109.314 49.3137 112 46 112Z" fill="#E9E9E9"/>
<path d="M46 132C42.6863 132 40 129.314 40 126C40 122.686 42.6863 120 46 120C49.3137 120 52 122.686 52 126C52 129.314 49.3137 132 46 132Z" fill="#E9E9E9"/>
<path d="M46 152C42.6863 152 40 149.314 40 146C40 142.686 42.6863 140 46 140C49.3137 140 52 142.686 52 146C52 149.314 49.3137 152 46 152Z" fill="#E9E9E9"/>
<path d="M46 172C42.6863 172 40 169.314 40 166C40 162.686 42.6863 160 46 160C49.3137 160 52 162.686 52 166C52 169.314 49.3137 172 46 172Z" fill="#E9E9E9"/>
<path d="M26 12C22.6863 12 20 9.31371 20 6C20 2.68629 22.6863 -1.44847e-07 26 0C29.3137 1.44847e-07 32 2.68629 32 6C32 9.31371 29.3137 12 26 12Z" fill="#E9E9E9"/>
<path d="M26 32C22.6863 32 20 29.3137 20 26C20 22.6863 22.6863 20 26 20C29.3137 20 32 22.6863 32 26C32 29.3137 29.3137 32 26 32Z" fill="#E9E9E9"/>
<path d="M26 52C22.6863 52 20 49.3137 20 46C20 42.6863 22.6863 40 26 40C29.3137 40 32 42.6863 32 46C32 49.3137 29.3137 52 26 52Z" fill="#E9E9E9"/>
<path d="M26 72C22.6863 72 20 69.3137 20 66C20 62.6863 22.6863 60 26 60C29.3137 60 32 62.6863 32 66C32 69.3137 29.3137 72 26 72Z" fill="#E9E9E9"/>
<path d="M26 92C22.6863 92 20 89.3137 20 86C20 82.6863 22.6863 80 26 80C29.3137 80 32 82.6863 32 86C32 89.3137 29.3137 92 26 92Z" fill="#E9E9E9"/>
<path d="M26 112C22.6863 112 20 109.314 20 106C20 102.686 22.6863 100 26 100C29.3137 100 32 102.686 32 106C32 109.314 29.3137 112 26 112Z" fill="#E9E9E9"/>
<path d="M26 132C22.6863 132 20 129.314 20 126C20 122.686 22.6863 120 26 120C29.3137 120 32 122.686 32 126C32 129.314 29.3137 132 26 132Z" fill="#E9E9E9"/>
<path d="M26 152C22.6863 152 20 149.314 20 146C20 142.686 22.6863 140 26 140C29.3137 140 32 142.686 32 146C32 149.314 29.3137 152 26 152Z" fill="#E9E9E9"/>
<path d="M26 172C22.6863 172 20 169.314 20 166C20 162.686 22.6863 160 26 160C29.3137 160 32 162.686 32 166C32 169.314 29.3137 172 26 172Z" fill="#E9E9E9"/>
<path d="M6.00001 12C2.6863 12 6.84897e-06 9.31371 6.99382e-06 6C7.13867e-06 2.68629 2.6863 -1.44847e-07 6.00001 0C9.31372 1.44847e-07 12 2.68629 12 6C12 9.31371 9.31372 12 6.00001 12Z" fill="#E9E9E9"/>
<path d="M6.00001 32C2.6863 32 5.97475e-06 29.3137 6.11959e-06 26C6.26444e-06 22.6863 2.6863 20 6.00001 20C9.31371 20 12 22.6863 12 26C12 29.3137 9.31371 32 6.00001 32Z" fill="#E9E9E9"/>
<path d="M6 52C2.6863 52 5.10052e-06 49.3137 5.24537e-06 46C5.39022e-06 42.6863 2.6863 40 6.00001 40C9.31371 40 12 42.6863 12 46C12 49.3137 9.31371 52 6 52Z" fill="#E9E9E9"/>
<path d="M6 72C2.6863 72 4.22629e-06 69.3137 4.37114e-06 66C4.51599e-06 62.6863 2.6863 60 6 60C9.31371 60 12 62.6863 12 66C12 69.3137 9.31371 72 6 72Z" fill="#E9E9E9"/>
<path d="M6 92C2.68629 92 3.35207e-06 89.3137 3.49691e-06 86C3.64176e-06 82.6863 2.6863 80 6 80C9.31371 80 12 82.6863 12 86C12 89.3137 9.31371 92 6 92Z" fill="#E9E9E9"/>
<path d="M6 112C2.68629 112 2.47784e-06 109.314 2.62268e-06 106C2.76753e-06 102.686 2.68629 100 6 100C9.31371 100 12 102.686 12 106C12 109.314 9.31371 112 6 112Z" fill="#E9E9E9"/>
<path d="M6 132C2.68629 132 1.60361e-06 129.314 1.74846e-06 126C1.8933e-06 122.686 2.68629 120 6 120C9.31371 120 12 122.686 12 126C12 129.314 9.31371 132 6 132Z" fill="#E9E9E9"/>
<path d="M6 152C2.68629 152 7.29381e-07 149.314 8.74228e-07 146C1.01907e-06 142.686 2.68629 140 6 140C9.31371 140 12 142.686 12 146C12 149.314 9.31371 152 6 152Z" fill="#E9E9E9"/>
<path d="M6 172C2.68629 172 -1.44847e-07 169.314 0 166C1.44847e-07 162.686 2.68629 160 6 160C9.31371 160 12 162.686 12 166C12 169.314 9.31371 172 6 172Z" fill="#E9E9E9"/>
</g>
</svg>
